# xmcd
#
# Track frame offsets:
#	150
#	13838
#	23132
#	29316
#	50075
#	65239
#	76268
#	81442
#	86818
#	113607
#	121132
#	135420
#	164042
#	174523
#	203783
#	250260
#
# Disc length: 4038 seconds
#
# Revision: 2
# Processed by: cddbd v1.5.2PL0 Copyright (c) Steve Scherf et al.
# Submitted via: audiograbber 1.83.01
#
DISCID=d90fc410
DTITLE=Hans Scheibner - Wer nimmt Oma?
DYEAR=2008
DGENRE=Satire/Hörbuch
TTITLE0=Der Weihnachtsmann auf der Reperbahn
TTITLE1=Hello, alter Weihnachtsmann [von Gesa Scheibner]
TTITLE2=Nicht mehr vor dem Fest
TTITLE3=Der Weihnachtsmann in Nöten - 1. Kapitel
TTITLE4=Wenn der Müllmann kommt
TTITLE5=Geschenkpapier
TTITLE6=Weihnachtsgrüße
TTITLE7=Oma Reimer unterm Weihnachtsbaum
TTITLE8=Der Weihnachtsmann in Nöten - 2. Kapitel
TTITLE9=Weihnachten zu Hause
TTITLE10=Im Tempel der Düfte
TTITLE11=Der Weihnachtsmann in Nöten - 3. Kapitel
TTITLE12=Was schenkt man Oma Reimer?
TTITLE13=Die Weihnachtsfeiertour
TTITLE14=Wer nimmt Oma?
TTITLE15=Der Weihnachtsmann in Nöten - 4. Kapitel
EXTD=
EXTT0=
EXTT1=
EXTT2=
EXTT3=
EXTT4=
EXTT5=
EXTT6=
EXTT7=
EXTT8=
EXTT9=
EXTT10=
EXTT11=
EXTT12=
EXTT13=
EXTT14=
EXTT15=
PLAYORDER=
